<mxfile host="app.diagrams.net" modified="2024-05-22T01:58:14.078Z" agent="Mozilla/5.0 (Windows NT 10.0; Win64; x64) AppleWebKit/537.36 (KHTML, like Gecko) Chrome/125.0.0.0 Safari/537.36" etag="UOK3YEjvHIJVJu9NVvTM" version="24.4.4" type="github">
  <diagram name="Page-1" id="929967ad-93f9-6ef4-fab6-5d389245f69c">
    <mxGraphModel dx="1235" dy="614" grid="1" gridSize="10" guides="1" tooltips="1" connect="1" arrows="1" fold="1" page="1" pageScale="1.5" pageWidth="1169" pageHeight="826" background="none" math="0" shadow="0">
      <root>
        <mxCell id="0" style=";html=1;" />
        <mxCell id="1" style=";html=1;" parent="0" />
        <mxCell id="htqSi0T2ii6djHguxnY--1" value="" style="shape=image;verticalLabelPosition=bottom;labelBackgroundColor=default;verticalAlign=top;aspect=fixed;imageAspect=0;image=data:image/png,iVBORw0KGgoAAAANSUhEUgAAAOEAAADhCAMAAAAJbSJIAAABR1BMVEX///9cnO47Vmql1qfvU1Bsv/j/wQcpSWAuTWOlr7fL0db3+v5koe8zUGUjR19MZXiFkp16ipabpq5bmejU2t3x9PXh5eg8WW/r7vAeQ1tWme7/vQCfw/Sg1KKUvPNjvPjuRkP/xQDvTUr6y8r//PPT4/rk8/73+/dyqPCb0vrN6Pw3TV7P6dC74L1Nle3zf32+4Pxoe4nZ7dqw27L/6K//7sT/3Yn72tkvUWzwXlv85OPuQD0pVmt9xvmn1/rq9er/+Ob/5ab/4Zn/zEP/9Nl/sPH4trXycG73rq3JVFZhp9hntep3osGd0/rU49mXxZ6MuZf/02b/z1t/eFJyclU8Vl18j6W30fegikmYhU1Tc3dGhrFtR1euVFt+X21dcoO4wcd7pY2Ytqb2wCJeaFnzi4n1oJ+BSFW4VFnOU1WMW2f/zUj/0mEIoWn3AAAMyklEQVR4nO2d60PTSBfGI71qCYhawNZaDNBCubTchFKBqgh4W5dFF3ddd3HZfd+9+P9/3jRN22TmzGQmPTOlkeeLlSZ55pe5T5MzhqFRuyfVerxePdnVaapRu9WGZcXjcctqVCPJeOTgtWVZR4NODr6OGnGvGpFDnJ2J+zWzPegkIatuEYRWfdBJwtURmYV2JkarnB6TWWhn4vGgE4WqBgVoNzaDThSmtulCGrG2hmpJHcLZQScLUdEnBEtpI0qlNPotjVEFeovqoBOFKqAiRqoaGkAmRiwL7ckhQWhZkZsibs9YPsBINaRt7dZ7dXHmOHI56Ogk3prmW5ZVH5ZpRalSq1VKMmf88vnly78+/6rWBEuZWqLoKFHLCJ809qSlcbUmSKrsFROuiomK6FljIy0JE1YSYUxwVOtaO/Y1wdPkCEOaoKji8xZ3lyKskSYac7GUIFUUawtkCEtFykVfg7NImRcXhU6UIQxtgqAMfXftTJzmKOue6SfM8k4BsjBR1NWgkhXE0af7Y2zd/22aIpz8jXvGJ8BDW2NDlx9br5ZGODLHswRhdsrknbD0CiLUVUz3APPEay7hSOqCILxIcY9feg2Z7F1hwvRNgvBm+ppwgIT7cD00GeISsk6C6+G+JkJyROPozQRDayaH0FxjnfYGItQ1qslA5syjb6U4hKlbzPOg26htgkF3iJzyE5aQrgs6x95UW7PHvrthCTO0CTYGR+SQijfwDksoZYKvUsJjX+QO+kMTypgoUOZt0bUvFhe5DUB4QiOz2DN5q6mVOVhfXl4/cD6W9vecFZS3Afe2D0Lb5K2zULO3XyLt1Wg5VnAUWy47/8+USsF3ti9Cr0m5Zx8egauDWCHmqlBYFz6tX8KO1gs9+5iSfFzvGjgmwvcRiXDZby9+h4XlB5RAxCFcJu3Rc7FMOIh7oBAe0PblcCBMrVAWsQ2xM1EINyj3wko4EJbKlIPt8d0kXxKEAVf6jr6/sRhuJpK10NGXFGt219b4pCDhvXH+hVJfoBuM29iQFd3RO/403Z7dZoUIp9PcRSn75HcQIW6vuAJYxN7x02Wn/6YQYcCChi2IMIZbEcMRpu8IEd65JtRBCNbD78fYjUMIQvbFxr4H3JHrId3j2vr9NlMTpjShOcG+3O8QIfKohu5yuR3SvZQ0Yeoe+3JQdyw44BAW3SFySwkyIVBL8MfeG5QH72hsQoMCxM5CuqDwqwE6IdUQYA+8bZW9uRg0B0Un9M6/WzmoANBoVQbXpFBYCXDAJzTKK117ZcsYRnl5w6aLbSwHNtQKCO1sXN4oOPZqMtBV2ZbAYUoIxe01SBXh1dE14TXhYDV3uLm51eQfo4CwubW5eTiHkP4gbZ0m8y1dPua5YRPOPb50XJOnW3gosNPXfNJVPvmUfRwy4dNkz/ar0nxsJr3KnzIPxCU8zft8m6hMPs0lk4KIqIQEYDKpLhd/SJKIm8QRGVe30lO2zDtG9+NN+6ORan2cGm99vGm2PqZv2R/vdD+2RVxzkwRM/qAKcIuySl76buf8wmhHd9uS/ehoYd570blLyjWvqrl5Tln5M3F+NXcDQ7lVLyKdhcnkczWATdrJX2AWcABtxAXPVamq0VJTCSFQSJPeWp8ZRQK8cWO0VxfnHgGmiorpM4gwr5wQdH2mhPAxlIX5pmLCJlhyHishjH4egvXwUZTqYVBbqoZQZ1sa1B8qItTYHwaNaRQR6hzTBIxLFRHqHJdStzPva7RVERqPCcRLhTPE5mWeCaiO0I+Yv2yqA7Rz8dQzxyemTuoIjU3PHP9U9VrN4WnyUUuXz0gnhYTG3LNLxzV5eqiYz9bk2B9nZ+8//Eh9oZLQMH788P7s7I8dHU8KT5rmzs5O+jYSYW4VmFUChLfTtqs5kqW+UEHYWlUxpQlz4Owx96BUOqe+gQjbj3dcXcLc6MOHN2jG9mx+nvziShCu3btFikOYe9A69SGF6E7mXxBfjFLXvremm3DETJFK32UDvmifS/39YfvvDwjCu2nq6u7DfRoJaU1xCGswCZNwiuFxdQndc0urESXsgFAVTp5Qy5sz4wxENmFv/fO8P0JzDYlhe3aWE+Ro0kylIZlMwt7yZwbOXIrQBB1SI9NhE+3V7HFjxlajyow2lr24A4pFmDvvnevvMJiEsMFFH4nu3YnjTsQqSzqYE6s/zHne/ZoXIhyVM5ZJ9Kw3IpclFzSONabpdIZt+Q5iEko1KEe+RPOjiM0S8Q2lQowyCX0/JflgUAjJeH68RJNh4+TCGbMI/cn1dYkYhFKJ/pOK3zjzv74J20PS1vftf7xdIgahTKJ3gSijM+JWjJZm1W1nam5hPfdkIkJLswsFDmUdfAIQWv/nBJHxizHy7qR2wW1wvF0ie+Qt7PqZjhvKDqsJBBmNW389YQ2gxMY0nc7Qrn9u0fN0ifKjNlJP/gay0GIV0zpwcPzvfgldrvNch3UelRBKNDNyKATYL2F30D3a6xdHqW/7IITSzAyGriIPO4Pu+dVcrtPm9IbfuvNQRT3stPsPXtjqVUk8Qql6CIT3j1v/jAsLIOx2hj51H9pgEoqbSrWlUH9oMY6FBPSHOTDgwnwnE3X3h/hjGv+gu6fRIML+xjQnzIN3qRzsc1zqnRl61SHSPi5Fn1usMlLaKaba5xbk/FAuYDNN2FuBIrWASCiZaNQ5fqczLM131R3h8AnljCUTjbhO08mKF6tdub1HiU/IWqdhrpZKrNO07wl/rQ1cBwPW2nJ+nLbci7RnibJrbeZk2ERLSXi9NEeN0ryjOC6h6vVSroTXvLtPiXrrZ7eH5OfhQNe8xQndQjrv+7Gik7FOMR3y3y06hMQi8PmwEAr8fthu8zPE703tspvhl9Ir8PuhOUHFOZ4k+8PcQ7vWZMjfdx2qzl/djo/6DXiSirU8cSV/x8/dgH689/6kv+qU2av5O77YkwqMBzA8KzUPSiWyjA6csPVgy86O9udpHNcpLYQfzj5+/Ok9FiEoiPD9Tx8/nn3Q0B9uPX/U1mlTI2Hz1HV9rvr9w+a/vQchyQfmFRJ6XhPI/9tUCXjof4D2qyZC4vU8hY8nkk/r+98/VEZIvX/YVEZIPayf974oq4rwKfWct6pH9cFXSjQ8q0+ban3/0JOJigjpLFSWiYe008DemVHT2ET/vafov7t2/f7h8Odh9N8Djv673NF/H/8biKkQ/bgY30Bsk+jHp/kGYgwZ0Y8T5bhFPNaXmIY7XpuIrgmvLmH5QCy45nASlp0AqYXChkAUZnWECiOYrncD+QowKiI8WHGi0K6sq4D0bVISGPFdTZTdbqzmQgx/Jx1iF5YgRBWEvqjl2Juw0DHRA0KiKyAkkoCMCG0cwD1BQTxv6h6jhrwGdgriZyI+IbB1AWZzA+39wA1sj04IbOWDmYng7hYF9nYU6Ptb3L4N7lKCRwjuhRT7kOZsYDQiTcjZo8Q0U1ACEPfwgAl/HgkS2j4zI+MgIV6nOHjCnxUTgvUwFpgs4f2e+JuQ6yAE29J3O0HJasfLCSbMmgF7dtkCCRH30oG2e/oSmKw1Jz6AwL5rk2tBl9oB9yVD7BChYjqdDZC7siu0d17QtbLQhlOo4zZqUKN7l056h0nkDZ+ofXTE75+SfUjlkiCkcizs3AVrL1mqGGHPgss9h4LUiBCLkNxxSsGGuQcr7Q2HCytSF0cj9BZUVdshGQfr695No/Xu6ey5xyKLYf1rEPtyG2VnZ24t2wV5tz3Xsrc63wRfElvXhyeUMEFXyWPt2HPcQxPKmKBrL0Foj12GwhJmaBNsDLZqRdK8uM88OCzhPm1SwwZhKUNat9yZR4clpABt6WptKpD5mwmG2kErGYTmGuu0N9BtrGgipMuPrVdL/EUpmJC5/LT0CiJk1wVcUU1AS6+XyFmrTyxClpZeQya62pprQkhjFwThBX/5abCEi3A95GbheIYgzI5zMxGuh4uaCOnu0Nan+xyNTbTfqvMQGtMTY7xTPkGEujrEDEBYFOqqvITKTDBEF1PB8iNBGN4EQyX67oqNimUIyYG3LY1Db3JUI1pBZAip6q5tRAO4C7cAUoRhTZBU2evaFxPCN1eO0KgkwphgKVNzVlCKxURNvIUbe9KSMGE4E0SVKrVaRar2//L55cuXn39VazJAncQtqxXIyYqzw40Ns3brvZhcM3XJEFTDoG1vQC7ZMGLDIDJunGVFLRepuJrMCJxDKjIuXpwToHI4BYRGjVgmQiE4G4NOFKa2gcio8UaUmlOgGkasIkafECylUsFRr7wi39IYx0BvwQorPpwCAmlHqhraqve1OcgwiGprotXOtHTkb2waR4NOEL6OrF5BtawIAtpTxGrDgbSsRjVqk8OOdk+q9Xi9eqKV7z+ZOIo6Sx5SMQAAAABJRU5ErkJggg==;" vertex="1" parent="1">
          <mxGeometry x="290" y="460" width="100" height="100" as="geometry" />
        </mxCell>
        <mxCell id="htqSi0T2ii6djHguxnY--2" value="" style="shape=image;verticalLabelPosition=bottom;labelBackgroundColor=default;verticalAlign=top;aspect=fixed;imageAspect=0;image=data:image/jpeg,/9j/4AAQSkZJRgABAQAAAQABAAD/2wCEAAkGBxASEhURExISFRUVExUVGBgVFRcYFhYXFRUWFhYVGBkYHSggGBslHRUVITEhJSkrLi4uGB8zODMtNygtLisBCgoKDg0OFxAQGi4gHx0rLS0tLS0rLS0vLS0tLS0rKy0tLS0vLS0rLS0tMS0rKysrLS0tLS0tLS0tLSstLSstLf/AABEIANUA7QMBIgACEQEDEQH/xAAcAAACAgMBAQAAAAAAAAAAAAAAAgUGAwQHAQj/xABHEAABAwICBgYIAwQJAwUAAAABAAIDBBEFIQYSMUFRYQcicYGRoRMyQlJyscHRFGKSM0OCshYjU6LC0uHw8WN0gyQlNFRz/8QAGQEBAQEBAQEAAAAAAAAAAAAAAAECAwQF/8QAIxEBAAICAgICAgMAAAAAAAAAAAECAxESMQQhE1FBYRQiQv/aAAwDAQACEQMRAD8A7ihCEAhCEAhCEAhCEAhCEAhCEAheErC+rYN9+zNWImehnQtF2IDc3xWN1e7gAtRjsJJCijWP4+QXn4t/veQ+y18UptLIUUK1/HyCduIO3gFT4rLtJIWmzEG7wR5rYjma7YQszWYGRCELIEIQgEIQgEIQgEIQgEIQgEIQgEIQgEJJZA0XJsq1pTpUKWLXAuSdVg3uNr9wHFaisz7FjmqGt2myr2JaZUkVwZowRuB13eDb2VEo8KxTFP6xz9SEnIuJawjfqsGb+0+KnKfo2pI/208rzwYAwfU+abiPwFq+kKl3CaT+EAf3itB3SMzdTu75AP8ACVPQ6MYZH6tLrHjJI93929ltihpRk2lpR/4Wn5hX5LJpXqXpBp3Gz45GcxZw8rHyVooq2OZgkjeHtO8HyPA8iofFNHqWZpHoY43bnRsDSDx6uR7CqfozUyUVb6B56rn+jcNxJ9R48R3ErVck71I6fdF0t0XXoQ10XS3RdA10XWGpqGRtL3ua1o2lxsAqjiHSDE02iidJb2nHUB7MifEBZm0R2L5DWPbzHNSEFU13I8D/ALzXPMG04gmcGSNMTjsJN2E8NbK3eFabrHGt+lWFCjKWvtk7Zx+6kgVxtWa9q9QhCyBCEIBCEIBCEIBCEIBalXWhmQzd8u1YK6vt1Wd5+yjLrtTFv3KbZZZS43JuqT0mUznRRSC9mOc08tcCxP6bd6uN1iqYGSMdG8azXCxB3grtau40JfC62OSkjlhtqmJuqB7NhbV5WtbuUe4qm4NiEmEz+glJfSSm4dt1Ds1u3ZrDhmOCvFTCBZzTdjhdpGYIOYzXjmNepVrlKUxSlApXPekClLJ2TNy12jPg9mzvtq+C6EVo4rh0dRGY5BkcwRtaRscOaDYwjEmVETZWEG4GsBta7e0jct1c0n0PrInXheHDcWvLHd//ACs8eieMyDbIRzqQR5PK7Rm+4TS+1VZFGLySMYPzOA+arOLadQMuIQZXcTdrB3nM93itSj6Mapx1p54oxyLnu87AeJVlwvRjDKSzrGeQe0/rWPJuTB81JzTPRpT6HA8RxRwkkJZFuc8EMA/6bPa7fNdCwnRyhoY9XVa4kdZ8gDnv5WtkOQXtVjMjsmgMHif9FFvcSbkkniVyVA6Z6P08gMlJF6NwzLRYNeOTRk13ZtWHQXSIm1LKc/3bjty/dn6dluCsJVJ0vwoxvFTHcAuGtb2X7nDhf59qtbcZ3A6ZdblDWauR9X5KtaMYx+KgDz67eq8fmA29h2+Kl7r16i0IsoKFG4XVewe77KSXltXjOlCEIWQIQhAIQhAKLxGu9hp7T9AqRpP0iSekdT0bAbEs9IQXFzr2IjaPmdvBQ8WF47UZ2maDvc5kQ8AQfJapNYncovhWGWtib60kbfie0fMqoM6OcSfnJNEPikkcf5fqtyDopf7dU0fDGT5ly6/P+jSXk0ho27aiLucHfy3WlLplQt/eOd8LHfUALND0XUo9eomPZqNHmCpCDQLCmes1z/ilf8mkLPzWNKVpJpbBPE6FsTje1nPIGqRscALm/grp0aRTmh1J2uDdd3otYEO9HYG+edtbWty5KWo8Mw+HOOCFpG8Mu7xIut5+JMGwE+S52tNp3KouoiLHFpWErPUzF7tYrCVAhSlOUpQIV5dMUpQK43SFOUpQIUpTlKUCFYKunbIx0bhdrhY962ClKCkaK1LqWs9C85Pd6J3C9+o7xI/UulLmOmbNSpbI3aWNd/E0kX8gulRSXaDxAPiLr0YJ9TCSytdY3G0Kw0s2u0O8e3eq3dSWDTZlnHMdo2/75LWWu439EJdCELyqEIQgFr1tSI2337AOa2FXMRqtd/IZD7rpjpylJU3QtsdDiD4pgB6VtoZHbM3ZC52F2ztAG9dRnk1RdUbHMKZUxljsnDNjt7Xfbis2gWkb5Nahqf28QIBP7xree9wFs94z4pkpxn9ELI+d53nuyWFzjxKzVEWqbbtywlc1IUpTlKUCFKV7I8NF3EADeTYeJUBiWmmGQX9JWQgjc12u7wZcoJwpSoTR3SymrnOFO2ZzGj9o6ItjJy6gcfazBtZa2kU2MBzhRw0ZYB1XSSP1zln1bBoN7jaUFiK8IXzvpBpxjQkfDNO+FzSWuYxrY9XldouRvvc7V2DQOgpRTtqIJZZnTMbryySPe5zhtaQTZpBJFgL9qCYxfFIqZnpJNfVuG9SN7zc3sLMBO7aqRiHSrA2T0MNLUSSlwaGvtFdztgzuQcxu3ropXJ9LYx/SKjy2iEnmQ6T7BB02jdIY2mVrWSEdZrXazWngHWF/BZCnKQoNHFsQZTxmR+dsgBtcTsAVNk0wqiSWsjDRu1XG3ab/AGUn0hX9HFw13X7dXL/EpvRNrBSRaoGbSTzdc61++63SnOdJKAw7TJjspmav5m3I7xtHmpd+PUgF/TM7sz4bVlxTRiln62rqO96PK/aNh8FEjQOO+c77fAL+N/otThtBtA1krq+qa1jTY2aOTASXOPDaT4Lp7RYW4ZKOwjB4KYERtzO1xzce/cOQUjdd8ePjHtHt1mpJNV7Tz8jkVguvLrpMbFtQkhddoPEA+ITr57QQhCDRxeo1WWG12Xdv/wB81XrrbxafWkPBvVHdt81pXXtxV1VmZNdVDTWB8MkVbEdV7XAEjiM2E9wIPcFbbqG0xA/CSX/Lbt1wrkrusi64diDaqmjqG5azQ63unY5vcbjuWMqu9E8hNDKDsbO8DkDGxxHiSe9WMrwtEKUpylKCH0h0cpK5rGVMXpAxxc3rOaQSLHNpBty5BcZ6TOjc0l6qla51P7bM3Oh53OZZzOxd8KxvaCCCAQRYg5gg7iEHGehvTVkYGHTkNBcTC/YNZ5uY3cydh4m3BdjK4X0odHxpHGrpWn8OTdzRthcTtH5PkrR0WdIAqA2jqXf17RaN5/egeyT74HjbjtDf6WNFoKmlkqj1JqeMuDwPXa3Mxu4jgdx71yXQXTGbDpbi74Xkekjvt/O3g8eew8u5dI8urhlWf+kW/qIb9VQ/6ANrcJpZYQG1LYbjcJWlzjqO555HuOWwOo4ZiMNRE2eF4fG8XBHmCNxGwg7FzvTRlsdw53vBg8JHj6qiaEaWz4XOY5GuMJdaWIizmkZF7Qdjxw32twIvOmFZFLiWEVMTg+OR3VcNhAkb4HrbNyDphSlMUpQQ2ldCZaZ4A6zOuP4do8LqL6P8Ru11OTm3rt+E+sO42PerWVz3GqSSiqRNHk0uLmcM/WjPie5apbjbaS6NdY6mpZG0ve4Na0XJKi6HSOmkZrmRrDbrNcbFp+vcqxilZLiNQymgBLb9W+QPGR3AAX/5K9d8kRG4Rnr9Mpnv1KaPbkLtLnu7GjZ2ZrE7SPEYCDPE4A7BLE6O/YbD6ro2G4TT4bDZjQ6VwzeR1nneTwaOA+eai8QeZwWy9dp2tPq9w3Ly/Jbva6YMExyKpbduTh6zDtHPmOakrrmuJ0UlDM2SMnVvdp+bHccvEK+4ViDZ4myt3jMcCNo8V6cWTl6ntJXSgP8AVs+EfJbC16Af1bPhHyWwvJbuWgSqRj3STTQuLIWGdwyJDg2O/J1jrdwtzTdKmMOhpmwsNnTktJG0RtAL/G7R2ErT0G0LgbAypqGCSR4Dmtdm1jTm3q7C4ixz2fOCqnTyS/7KP9Zv8lmi0796D9Mn0LfqupimiAsIogOGo23yWtPg9G/16WA/+Nv2XT5b/aac/bpvBvjl/u/dRGKYvNXvbTwxOsXXDRm5xG924AX7Btuukv0NwpxuaYDsdIB4NdZSmHUNLTAiCFrL7dUZntccz3qWy2tGpNNXR/CBRUjYLguN3PI2F7vWPYMgOQCzlZZXkm5WIrClKUpilKBSlKYpSgxzRtcC1wDmuBBBFwQciCN4XAukvQV9BJ+Kp9b8O54ItfWgeTkCfdvsd2Dba/fysNTAyRjo3tDmOBa5rhcOByII4IOIVnSAKzCKimndapaIgHf2zRNGSfjABuN+3iB1HQQWw6k/7ePzauNdJGgj6B/pYgXUzz1TtMRP7t/Lg7f27e26JR6tDSjhTQ+cbSgqfSZoCKxpqadoFS0ZjYJgNx/ONx37DutyHRuaRtZSxuLgI6pnUdfqOdIwPyOw9UX7F9PFUzSbQKKpqoayNwilZKx8mVxIGEHYNj8gLoLeUpTFKUCla1bSRysLJGhzTuPzHA81slKUFPl0IbrdWcht97NZwHaHAHyV00epqOhYRCx75HDrPeBrO5X9lvILCUpQPV1LpHFzjn5AcAsCYpSg08VoWzxOjO8ZHg4bCqtoliDqec08mQe7VIPsyDIHv2eCuiqGm2HWIqG77Nfbjbqu8rdwVrbjO4JdpibZoHAAeATqB0Kxr8XSskJ67epJ8bQM+8EHvU8oOV9MJvPTt3ejd5uAPyC6ZqgMaBsAA8AuddMsB/8ATyf/AKM/lI+vgr9h9QJaeKQe3Gx36mg/VAxSlMUpQKUpTFKUClKUxSlApSlMUpQKUpTFKUClKUxSlBgq6aOVjo5GNexws5rgC0jgQURRNY0MaA1rQGtAFgABYADcAFlKxyPABJIAG0k2A70AUpVexPTOljuGXld+XJv6jt7rquVGl9ZMdWJoZyY3Xd4m/wAkHQiEpC5ycNxObNxkt+eSw/Tf6Lz+jtezrNOf5JbHzstcLfSbdFKUqj4LpLNBKIqvXLLgEkWfHf2vzN4jhsK6FXUTo7HItOwhZVpFKU5SlAhSlOUpQKtfEKUSxvjPtNI7DuPjZbC9QQXRJiBjqZKd2QkZe3B8Zz77E/pXWVxbRI/+7s1NnpptnDVkv5LtKCpdJ2HGWhc4C5hc2XuHVf4NcT3LB0YYqJqP0BPXgJbbfqEksPZtb/CrlIwOBa4Agggg7CDkQVx7GsGq8JqPxFPreiudV9tYBpN/RSDhsz32Gd9gdXKUrmp6UZi3/wCNFrbzru1SeOrb6qKqtKcTq+qwuaDuhaWjveST5p30Om4pjdNT/tpWNPu3u89jRmqvVdJFMDZkUr+Z1Wj5kqr0WiMjutM/VvtA6zu87Pmp2n0bpGD9nrHi8k/6eS7VwXn9JtMYHptTVLxEQ6J7sm69tVx3NDgdvC6sz2kZFcp0owKNjPTRDV1SNYAm1ibBw4EGy6JoXiprKNr3G8sZMbzxc3Ye9pae0lc70mk6kiW+UpTFKVlSlKUxSlApSlMUpQRmO4vHSx+kfmTk1o2uPDkOJXPJqisxF59wHZciNnbxPiVt9IcjjVta4kNEbLdjnO1neXkrTQwxsja2O2oALW33387rrix859/hJlDYfolCzOQmQ8NjfAZnvU9BCxg1WNa0cGgAeSa6Lr21pWvUMGuhLdYqyfUje/3Wud4C60KbpDeqrGwR5m7YR2l3WPYL+RXW8bIbGyMcvBosue9EdAJKmWd2ZiYLX96UuGt4Nd+pXPFZdaV3I6o7v9br5lrcpmXSGkUpTlKVAhSlYq2uiiGtI9rRz2nsAzKquJ6YE9WBvLWeM+5v38EFnq6qOJutI4NHM7eQ4qq4tpYXXZA0i+WufWN/dG5Z8I0Lr61wlmLo2H25fWI/KzaO+wXR9HtEaSjsWM1pP7R9i/u3N7goK50Z6KSQk1c7S15bqxsPrNB9Z7huJ2AbbX4roSEKgWtiUHpIns4ty7RmFsoVidTsc4/Bw3v6KO/HUbfxss4yyC3sapfRykbndYdh2jxutC6+nXUxuHM10XS3RdaGOthEkb2e80t8RktHofrdWWenPtMEgHNh1Xd/WHgpK6q2Ez/hcWY7Y10tj8Mwt4Au8l5PKr1LVXVqhtnEc1hK3K9uYPEfJahXkaIUpTlKUCFKU5SlBAaV6PirYC0hsrL6pOwg7Wu5c9yo1LiNVRO9FIw6o9h3Dix3DyXVitHFcNjqIzHILg7DvadzgdxViZrO4ERh9cyZgew3GwjeDwPNbN1SdDpXNndHe4LTe2y7Tkfn4q6XX0MV+ddsSa6SaMOa5p2OBB7xZe3RdddIqeiWNuwyqe2VpLHAMkttyJLHt47T3Eq24hpNQFxeyoaQ7O2q/WBO24stLEcLhnH9Y3MbHDJw71EHRCG/7SW38P2Xht41on01tu1emVM31A957NUeJz8lB1OlNVMdSJupfcwaz/G3yAUzT6M0rdrXP+N30FgpWCFjBZjWtHBoA+StfGtPcnJT6TRmolOvM7VvtLjrPP8AvmV0PQzROCG02pd3sl+bviHDlZZcFwwyu1nDqA/qPAfVWwC2SzkilP617IeoQhcGghCEAhCEEbjtD6WO4HWbmOfEKnXXQ1VtIsM1SZWDqk9Ye6ePYV6/Hyf5lm0IW6LpbouvYwa6qmm1LmyUfATz2t/xeCtN1r4hSNmjdG7YRt4HcVzy051mFiVxwHExWUccw9bVGuOD25PH17CE5XKtG9IJ8Mmcx7NaNx67L7dwew7L/PZ2XqHTLDpBrCbUO9sjXNI77ap7ivmdduiZKUqNOklF/wDZh/UFgl0roG7ahh+EOd/KCglylKrdRp3RN9UyP+FhH81lDV3SE7ZFCBzkdf8Autt80F7cd6pelWlzGtdDTu1nG4dIPVaN4ad557Aq9PPiFb6xeWcPUj8N/mpbCdG447OkOu7h7I7t57V0pitfpJlj0RwwsBmcLFws0cG7b9+XgrHdLdF19ClIpGoY2a6Lpboutoa6Lpbouga6ksIwt0xucmDaePIfdZsHwR0lnyXazcN7vsFaWMDQAAABkAF5c2fXqvbUQIow0BrRYAWACZCF4mwhCEAhCEAhCEAvHNBFiLg5EFeoQVDG8GMV3sF4/Nvby5qHuujkKvYro6Dd8Ngd7Nx7Du7F7cXkfizE1Vm6Lr2WNzTquBaRuIsUl16mWKrpI5RqvaHDntHYdoUNNorCfVe9vgQp66LrNsdbdwu1b/oiP7Y/oH+ZOzRKPfK89gA+6sN0XWP4+P6Nyh4tGKYbdd3a63yst+nw2CP1Y2A8bXPic1s3RdbjHWOoNmui6W6LraGui6W6LoGui69ijc46rQXHgBcqdw/RpxzlOqPdHrd52BYvete5WIQ1NA+R2qxpceXzPBWjCsBbHZ0lnO4eyPuVKUtMyMarGho5b+3isy8WTyJt6j1DUVCEIXnaCEIQCEIQCEIQCEIQCEIQCEIQYKujjlFntB+Y7DtCr9boudsT78n/AHCs6F0pltTqUmNufVWHzR+vG4DjtHiMlq3XS1rT4fC/1o2HnYX8dq9FfL+4Ti57dF1dZNHaY+yR2OP1WA6LQe9J4t/yrrHlUTjKo3RdW0aKw+/L4t/yrIzRmnG3XPa77AJ/JocZU669YCTYAk8BmVeosFpm7Imn4rn5rdjia0WaAByFlifLj8QcVJpsDqH+xqji828tvkpmj0XYM5Hl3JuQ8dvyVgQuFvJvP6a4ww09MyMWY0NHIfPisyELhM7UIQhAIQhAIQhAIQhAIQhAIQhAIQhAIQhAIQhAIQhAIQhAIQhAIQhAIQhAIQhAIQhAIQhAIQhAIQhAIQhB/9k=;" vertex="1" parent="1">
          <mxGeometry x="470" y="180" width="100.14" height="90" as="geometry" />
        </mxCell>
        <mxCell id="htqSi0T2ii6djHguxnY--3" value="" style="shape=image;verticalLabelPosition=bottom;labelBackgroundColor=default;verticalAlign=top;aspect=fixed;imageAspect=0;image=data:image/png,iVBORw0KGgoAAAANSUhEUgAAAQMAAADDCAMAAACxkIT5AAAAwFBMVEX///8xYZIAAAAtXpBMTEwvYJHq7/QlWYwRERH8/Pxbf6YhVosKCgojWIzz8/PR0dLJycmNjY2enp5tjbDBwcHc3Nzz9vnu7u49PT3Y2NiCgoIYGBjo6Oji4uI2NjaWlpYeHh4mJiZZWVlCQkIvLy9qamq2trZ0dHSmpqYpKSm5ubliYmKHh4dycnLe5u6qvdGJo7/V3+nC0N65yNlReaJEb5yYr8d4lrYASYOit81/nLpihapVeqKSq8QPT4cAPn31pxySAAAcSUlEQVR4nO1dCXuiytIWEBARJC647xvRxAVFoyZ8//9ffVXVgIhgZia5EyYn7/PceybSKF1U197VmcwPfvCDH6QHit4xplbv4aFXsipVXfnq5/lzKIoOUJJnoOi1drvTabdrwSi9U7QeJqPHVoH30XqsT3qVRu1fo4Rexff41Gw2n3rWtGJ0ajdDao15rzkZDrPZ7HAxeyhVijWlOm1mxzk+Bv3uomT8O1TQq9Zs1I9MYbRoWo2a7o+pVZqj6FwLo2ErbvoXDEvtf4IMeuW5XoifQnc4s6pIhtp0OLg72UK/np3MgItms+GoHyJW1mp/9QTfRW2avZpLDnDNENkHY14P/sz1x916vTsO1n+hO2yWjJoSRtvoPWd9otVTTgWlsvAnN8g+P5Sm80qlMp+WHpqL0eXF+1wyGDatuVGsVjvVRrFSKT1NRtmHeTWe22tFa+Gtr6Hxl6f1O1BK3kRHzUq1FtJooCBqDcNajEMMsZhGdR4MqoXvUUxAaIjeaD7SreNeaqVC+5kx60MxcUjHambffZfKxt6u1uX8znGc1/P6uLWX/pxrpRHdPknpeqix2TU7/geKKW0QUvhlZtrGU79Q8lSlubRXx+P+uNpulmZw34r7vxdVVTVZ1uA/rqs55beN9x3tJ8Zp1b8yp99EbUhym/GAItn7ssPJqotz4Zxd+W0LtPCG6kQBc3ksc5rrQ+Ve11uPEMrqVRW4AKKguaqz3rCLBv1QLo1CYUaLnDHBZv/KaZomC6IgioIgyPgHtzvsbSkYb58cTYURosjB/0QaJDiHFRuxXAsqF4Ioyqpz2NC12oSEQvqIYOFzzegFSycOp89dAyYpA0eUV6Y3Rr0ZAmM02TnR6lfsnStcXQRu4A50s95D1ZJL23JooMhfEAm2cbMLpqGuYIYKjokfIsiqsKb3LZ1UOXrRdbZEoBIaHfXO3Uf621Ca+EwoC8wjrP9EiO4R5/Am3hkDUsQhZjH32s0wTdjjJcYJi1SpyCKuhCn8w1wnvWCCesIxby/RFxwdpp6JFbaOGr0kuIdlBjkBf7H3pZOOAC2DIb6V1V0SaK/w/MpeeIcEMFN1t8Xvtd1bIqhn4oRJylZDG5Znaw7/sLV70xM1fLv3yRSQyyWmt53bL3wpIyeQLk6RwYiMuQCHUMrfvLareR1g7OaWv2Mhq2siQgzTuGW8gppochuW+CLU0FOy4B9HNUEhEAQH3p9Z/jUSANeopAlX2g3bCOobvP8OLobU6EcDHLpHWJrS7p6459Q3GHt075EpQoQTEuHtlrCyaMMFcND6qTGULE9PbYV7K10QkA1i1nfyHSouHuXs3lxR1/BzE08XpQKoFUowv8M9NhdpQvu7q+Xmnpc93CM5t2aCIzHSl7567h509GcrYOPfXQqCvEGh+RtsgDeJqCJv+UvggAZGiiyEGmjGMYiDrXjXNkBhvpV/RS+GIHNoUayjQkRUgaDVXHpo0EADCZTU+j4bHGHo+a7QjIN6gJW/jK4GUQWhWG3x/MNXT95DBT1G/Z0Jyg4uhVs99x5EdQU/cZTFyKewRqqD9PDBFGjwAG/rVnSFoJ1hBW9vJfy7oNUgRawKokHnMTUyUbGYhWRyd+SdqK5h5OlX7aMwXLgzs702sBkf9JlllgIQDUBPL+/JO0He4rL+7aXAefJPKbs3n4FMLMy/evYM6Mbis2zuLXaBg4e25d8xDgKQzby9+nZBW5IsToudiDRogXlg3/MH5R3MY/UH4gAnzAEPSWf16iNmH3QbXz17BqQBvo+te4cGavlPxQH5DXDzMSxxZc9OzKYkgEB8YNyIrQgNwF8yfTtSQPzKshAFjTIM6GlswsKE4igPfgTz6/FLawHluIQDBFmlUCnM7j0BiUHmw/oIwCDrldOtnkAXg8f+lJIYCuqF92ggCmghuYLmas5hZS+Xy832wN1bPDBPrWwHaRn4mbeLNBFVNDrrqTEPyEbKvUMDphb+T83vN5c3Z67FZItC9MKqAZT9hQaCAKayDmKo8rfnmoS5Zx/cYW4ZQ0hHZytd8a6yuskgBHDPS2+Ul3sO04AM7yp4ailRCyyw/o6dqO7Q4GVpNFNa2qvthv44JtlVWh5JYNplB/5wuIN0RQMVDW9gv6x+77n+JtqFd/0FNe8nGperkyO+vLy4lEcxy/H3iC7GDTZ518mXX2X5BeYclgcoEpWn9IhEWJhdnn9GvzFZ/btlRgN7vZNVTdsdTmWH+QFcLCPIjokxGe64lEyprLlgKZrr4OtFDUSivqDATUqgLFj84JTMBywavjkJqiqCzSgpirl8czeJ0XjysNYvb/T9QIM3M6wbBQ6jB6AWUlSJAVzZ7dw6+VEabByWjFXzdJd5RvPvFGc/U9BA2qmvNgpOQXxZKWFqaTvgqko/ReKAKQYwFO14viYa4II+vHiv0cXcc2azQ4N3FRdkFWSY/EYQVPe0P7uC6OKfl4i0hlnLXmocZwLmF6Z3Y6rqlVCTuf1yuX3VmC8ZQzjS/7YgALlcoJGAnnKIwvIqbeIgk+lkKbAnJQfTVEy2XpSboHKOrHHE8XEJB58PApotMbjsMwzlqzo8P0qJw0RQninHEpLcUWhoH6xegr9FAWWHu4d78zGEozDRhTrkJV78RtQSGMR8To1mRIAH162B9Eq0FMlODNHA4w6MGcfmH8nNDNhKezXBRArGvWwZ2VOTYyLAS8k17glFosE2SgMNLad1nGJQy0oo3ICeshIwmSzjUhinSjMC9BYTiomWYjwNGI/H8YGGNtIqoAFQxAwo4p7hF6c5fvTVs46gS3armWgpxtOAsrDbOC+DNEFA0iuuINtBf06R3+xhxvMTMFgShWICDTAFacdFlEQ0IUw/lkxrwacB+YyNLt9Pjc/oYc6qZxPTifEykTJmm1ghQrFk337SkAZvHg2oPKWUNq2QYTUh00jML4yobvTftp2UdBAcWgyyd7cZxFQFDcMnw7RphQyr1+6BOkuqR1JfpbCNFOaDhMSLCraDLwdJdq6YN0K+QrHPD1ISTb0AazTBSlJiFR3H/IVbLcj4IF6hqjhXT9mS7GT/pkiiAr7C7KunfAuMq7Yxvp5Ag4MZk14QkuUBXNtiZQuRTXADf4ECk23guuQ9El+G4oBcx2VCuZG7Bia5sQiZL5SQaXAxhbB5EQJ+oa+mQqQSqwRMG0ggJFsIL0cUFlELKtk+4Dy/KfNK34fWsfSKA1EiZrLpcpsDNFnS5xgrEMSX2Kxzsp2IUDHuwgL2L0eFeaUq2ohGylzGAGAhdItJSQaBBUGil2iWiUlIQSCJgMzjrlksjb4H5W9aSnCuUQOhmOgyMBrcCD/0ne9EYjUwkSmSEtBAzZu0VaKfQokIUMBsmSkJuWUxngYyqcbErIRA1ahY9OjRQMRCDlx1KVSMBMyE17C8OC4+GCsPBBQH97LVtFY2YH97NJDR0mqPU5RiiwBst0IlyVyO1QtYhHq3JkHQsCYNHIWXPakcNBkwXtNMm6vgA4OcvaS6dPdk3oTRBRc04/L1bjGbkyHDgHRj3sW/OnUyRFKKHrNcYrUjxVTta59JwzTD/TJvcKEzaGMztUL5t17atjFdAdT2AOT1Mq6qQETxJ3Ha1Ufb5HyjDxm9Bomqj7ZUe9IZ8IO0SgPEgJlvu9ggKSYXrxxHOS/dTct492GxxRrjSG/IDCgNZik0kwM0WTI8thiVgihSaPFT3jRzt9qf7kMWkDAxucPS/04urbaBh0qLbzXCuZEQBHqhodI1cgCTXKwLmETAWzHPivn21MWProA7zR6S1riGgaHMZfcjWf739z8xRthR1l4po8NotPjH1OxgigWGNmgxxM6MEirK2vXevHtTd5kA2r+V2eJaygxTtZsvFkafChVjU4iciNExkIuixmIhElb3/kKRIgVaMlvUixVwGNMsEBEY6sTymPgQO0WGYOIHwVUFKjD8tbpV2ruEwPCRbx7Vqsa0l8qGSbAYRu2EfDo6wyTfTHvvaC/4T+5X+ACrj1iVIujFQs+yrBK2lurizvdWM3WR1Ux7xCrU4pPwquOX2ykmFultnNfEFgAhiCr52LRdJgTWcujpC2cbDwxvYBpwFccIVHKRCfXCMSXJXnPv7XAS3PMWF4MyffSnP842S9OphV2W0lK4HkIRnrMRFzpEKwllmz4cTtthufbe9mdRe/PrddvGFFbC1Ch6zdeq2ITGSp1IwB35zQzuVIiudJlDCaA3sS3abFq5vD773hYgL4YA1lTcVEH8FNJHAwwrPiIjRFlc0KgBRtNnZ0wam0cs01Tu7oAWMS2rbE679TL8MwqpCqBBN4UmE9qKxAjXwk6g/d5oRDGg3yMdXl4OUpI54bNPHmOKnKu6zonq3Zcbe7s/HXBd4Xb7WfrYgPIfufbN1huX1NvUbx9HLYTAbhZV4A7lnuOkob+JOXhRxj5Lzs5xOPXFsRX2U+nLvCLQkMFYlx2qTRJZ+w5fuQ3I+6UlQMXX+2QzQcTdsYrPKNRDyVV3rDfONFU9IK5gge5C9zYUU1N3qBWLXaJAttTAKVDM3MtH36MBSFJTVQUGTXXd1y1zoqw+2zaRStRZTcplNWhkGwEJusOe3xmQaQPwIZS7/QCIBsr6FVYALITX8nrrKcrOzJesqUTFawyy4RgRNPT8YY30S0GCTFoxvUGVhvdoQLkmbK2GveeWQaMxneyjFIcSsF5qgCrL5mBy4CZu6cOxH/9RNsedzNLJrKL/zlqgSMvND5SyqW4giMB9yEN8vk3ZfXGx9hyLtohvpc32tJM1LCkBN8CzAN/u0MCJ0EAvVmaDi35NL1BpTZBPTXvFbH2LFVhvORBqqozSzX3ZrTxWjmn6cqEBiJLqU6nSaBSLc+upOQycBivVJKBCWn5ySY/rD75laK/POxJv+ROp+Aw2D71DAwo+z/gb1JupTL6HgXtM+KEvAGrU+pJ1vlQkMPRs2++aOZ+1sX9GIg0o9byIEGC8KDXSzQQELM3hB01D1/W21wKVH1WiYrz9UBjdpwH1mBvyhWx9gOjWF81SpfoPEABRIYOoP8pmsbHikBrqtppGyKzTGxaMybbvVLey+nU9y/eLHZAHxWK18081XS9e+kjzTb3CWiP3h09WpdioNoy59TzGFoj3aSC4YCq36/w4nSbxu+j0PBGeRb+m+DTyKdJ6fBww52ng0SBxLdA2R1hXadq89VtQGr1htzvxWoMrnfnskQ+jbz0xGiTrBSpMrLTSnGn+bSiG1Xwejkaj7KQ5pxjIezQwaU9vWmtv/hh6p9NhRwj0WJFdsr8gyBmyuNIXPf409Fg30GQaYB0KxqpT6x9+HBZrApnsM+GOWH3B51IZLfocWCwmmrxHGE2k2ijdlScfxJTlSBJpQIX67T5r3PxNUWE0WCXRgMq2G+npAPS/gMHzj/CKV0m1aRRBmaezUP+zUART0bhTn0dFTFZKkwifhIbXVCipOI36DTZZo5HvCqABqr1EGtAGv0VKN2x8ErAZqJW8I1DEUiR9xBfSW5v7ceDG7R72johPOAqYXOgMaLPYt0Wb9Y5YJjQcpuRCI8c/fmO1QNUKM2yWGl+LQmph6h1q8F2hzNjO0IT6NGqP8MBy+d8XrI4t1OLiSiRi3h1ZJSU9U/9HwA6ctBkuXhxgJ6hRKre0fiKwhGCOGxvihCL1WJuz9lPfGMU+Bp0zmX20KwAtBUxUDlO8e+lzgN3m8DUvYw4ceUEjscp/bysRMfQSkTdF/ALl5VEi1r+zhYTAQrVsBvc8hHdBYf3VGvPVVopOF/ifodhiUhF3dHtRRTzPjCtT+Qlmp/7VFNOvg06aymJGWjpyqordlDXuvLcxK63Mu/y3Dqf6mGPWjTpFK8vV4Zwv4xmOrIeshbnrb5xZuIBKV7M3ZpA+HVK9zVc80l8HO/5z3Lta9h2Ljqn81gGkMGqs1GbcLLZrul5rdypPWXbcd/YbpxUi0P1i9nF2MRkGh6R3rW+vEUJQildng1NeflH87qZRFPr0ue7XtBceh02r8x8RBFfQG5VeczJ5bvamRvu/SAAfivJfnv0PfvCDP4aimOZ78kMxJUkyv6WQMZfb1fp0KJcPp/XKluLnCIP2p/I5fy4f3labKCEU858mjbQ9O3i6D4MsOAf7djrLVdkRaAAebiRw+bdNeJC5Pp9P0s1d/wikvfaiCbK/a07QBEF9YTvdLtisVVcW/UE4WnDdc2iQtHNpO9k/CfMAL1XV8uvjdmvb29W+7LiCqHH7yyFGGWXlqEAZdQeDbMDqLS/iIPEtmLWUl4X8v0qDsioK2jq0+1kxVztNFKj3EIN0kpEq603obCdp7wAvUHdfNiYvy+/TQC8aV6gYxRTkOraCIHCryIfSAQjz4m98wvAskCS6F0zac7IYdGD4NRoUs/0BQ59hMB493+zC+MswD3KoF0AAPOVTO7OPsR8xkOn2QRV7B6M8IfCrNCjkcq0coFAo4P+TTzf52lKAJSgEZ3n7+YYTRGq2SJvkBMdOuFtmh939Og1yhcV8OsW2C4Tec5/PfXHiywY9UL5hgwxtG6e+W5mNKLCOg3HYAqlkuvjLNIgGdTtNvvVHKQ+QLZ8TE9qCsHuLewtbl5OROFLZFYX9nfsFtmPy12kQLX7QJ3zhT1Jflf4nVZ6vUBzEXdi4GqWpgUjCHb2vlDWROjH8OQ0yjW7uTzoOVD6r+n4rito6jg+Wr7tdWYI5yuw86CSA4KCGxh+gAaaF/iDeXSl8Eg1QHpxj5EFGWS6X4DfAFAUu7now7qBxL/aHaIDVQX+gGj6NBhtHiN0F7uOoinR+VTK2GjWo/QgNLHYy22/i02hgHsBQPscoRw+gHoR4vegDtKuwkz5Eg9LVMbJKLZYnFD3yOdDAuj8idCV84WbZ4elHWj6JE6SzdrNRPoq8LHLLj9BAubTy7Eyf6+PHcXf4UAw9tV7sTUbjx8dxfVEqstRpwyiW4KsaYG4T9XTjYdiFO7PNCtzYrlQw69wxQHvq0+dR93HMKnOr01m23q0PZ/MrEx3MYk4V8sdNXNRg48hU5n0PJ40Tth+ViWQg6FawZZPPLYJ64upzP5QnecI5YwMfvtWi7AEWGlQmrWDEooqtcrB3OvCXobMcIzUJqPXGwahuL0Rk6QxOMXjF3OvpaEcnAeJCLb8zs7WKx719gAbGY46697WHuG/3YWpUrOaowOc8XYGFdKMno9put42nMdt/ojfr2W4r182ORnUjo2BlyXhRmhuV0qTLDxrzfoHRoFUd8oXucDLBHHSji9v7Dfie+Wx8nZY2jzuMGQh0NvLutAozBKgNKnW/hyNYlPsP0KCdLdCekjYeWlnx3k7NynrqX2/yhVlgQjVYIW4Glv48x5dABNSUjJUr5GZskWQUsDuzD48eDbo9ftCrKghsH1Po+Uug+Mx2AAaQtqcdp6kytZJQZeew9xkCabB+hwYroMHbH9vKyhzeFG0xe+ILw9BTNcZs51kne/Ww8DK95qeGrxc6/VwuxNk6zLufYzQYjB+n3hutwe+EWoZiYrp5JULNpX087LBuRQC7EOTg+SgFNHjHfNn+Hg1y2d5DgOYEM4J9XNJGi5XPBKgMSFsY3etdN09+GytfN2Jb3CunS3nmWx4NWsAq3qdWZJQ+pGMNrqFIS3tffuVkbC2iaQ4Gkmw8Gv4dPtj+3lpo5fgIsnNvJtfqXplRH1VjfP3sVmtgXdEAa/Wve7wVH3MeDXK8r3OVLAiHq1HGIz+Je0bFlOzjaScgGdDyQRq8JxNBHsjH36DB46geYJQdNqfEkcDy0cOR5qQuQCR2w0U1etXrWOHToNKK+t6gCzwaXMpuGrnojPUZ/5gcxJLsPR4g6r6hblTf043r39SNz51igEbVb/0IEisbGVzrYx8ceNRCdh7TqsKnwfSm6FR58PngcsW67QRn8YV7xevKJq/hYZ/LV1neJVuRhLLMgbX9ETsRMR/wz9HPHqlNA/a+aHUXT9bc6IR6hgY0sG7WtWK1PL1wOZz1gc9Z17HMYu89xxMDSeqKgs73bWVzJ4vOh+xEwrR/WzHX5Ue4PIp+/6bWaNHsBQakT4PS7QkaU98+CDZuKU2Qk4UoyJKSNptNwoO/ydjEek8C7x5AZMjnj/lM7LFvj8Xp8nVmCLenT8PRmJmC42dPOoT4IMrSVmAjhWkwykYxwqVyhLV8TJwbeNW2LMi7u8oRzAM66Ojja+GmbHAcblmidIxpr4m9cAZsYhd5UIjKg54vDwIawFpoJezaWL2wKFAMNo4ovy6VnUbn4CUCloKgLj8WP0CAChxGPlIG/DDiCOo1rLRiwYZALxSi4UjQqjc0KCUe3Gy/cNop/jUjDUAcvqmsrVQStjLrZ/lRGoBuHEcmbNB6rbWvK4mqo0KB+uf6NKjWox1uqvVbPmjkomtN6TAtu3RZA7UYgFDELWDLV00UkoNpEjbsw3Lwj9IAVWBkWT+QOlt0rxsVYBcP+iCwE2fRV/xwsRMDGih1vn79KvFUKvRDTEdgRzTdYovmER796QrJIQSFJCcakh+lQWZaiPQxBc8AXcRFZAsa0uCKD+iktTCZKv2CT4PcZUNvKWpG9AqeBDpc8kkxs8OoO7Y5l/MJNsJRFFlPz4/TQF/wrfC6Rh8HWz2DXzxRrj+nXpIYV/bGAyOM5v5y0K1BLju4pUFnxI/D7FJs+fanjW1l9zHrXXIEOuQUFgXYjPGRJmWlCrIXavswDVAqti7uHzrJ1KWhMYKPQw/4UOCfaVSxwHpKgscAY/vPpWKn1i6WJiBFrEHhhgaZeT9MhOIo6ChuYsCQu1UN8Lmo5RmD2DIQISbbJp0w6OwlIj9OAyQCX+8Z1U6nMZ3l+IIXY5xj8y+r0Wm3250qFt/Xme+jZ/nC6MF6KGIrRWwmV2j1+wW4bCmBjRSmQabyyPPDKcZiOpXnHN8PuG6JeXa3bF+tB9POq+zIY0YERxM1+XqMstw7YEMGQWeqP1hKsbjcZ9Tv7R4wsOL+sZ4djdGhfvIcGmVap9Lr4WI46hYwzuINt1iXMDSUdeNp2G3lcv3xsFlULnbitbCswPfnutkhlXDXQy0zbSyv0JzTarOUTIC03KxOjiZo6kVWAknACnAOMMZkY7Z78CREQQQeMgMaOOVYnC957Xbp6emOn4Lxz0G/kBvUF72QlOtYz9luv1WAKWZn00BwKsWnyXC48BrN69Ui+ABVumr1c/iSjaeHa3dZt2Yj7CzXr0+sK5dxeaLyG5nbnc/wwOedA3/IWj6sLiR46TL25d6dy4fy+RWGaAK4UwLcWPZkItZtxMINJXXfK5zFmVQMoxFxo/VOg6o3ilcnDGA0vR2TmFBKuZbFfu32+w2jUjFuOmaa27Ks4cYnVm6F/5G5dUQTbE6OjKNonKbhP7n9cq2BZ3WmnOvOla+hMQDp4hLbnwijdL1fBS2GwW93uYDFXc5j12nsJeM458P2NtCuSNsDjhFozC5/2JoKaAYOFglnK0DI4yoJMVVun4kbzQ9qMPtHGxXMzca2sSzLjj2ZwRsDI7Y4aOm/WtuROfd//KLfQZGP+BVg/fzdPUubnZtgbf81DPlwXBmtqr+9q116+2ISZIwB35p5pyopxqzFAtX/MRi4dWmQXUwWWTCoCsPv3PYnEdXSpMvCTK3us/Vf27jlQalVDax3mxv/Sq/oH/zgBz/4wQ9+8IMfEP4fd9jN6F7Csl8AAAAASUVORK5CYII=;" vertex="1" parent="1">
          <mxGeometry x="470" y="310" width="106.26" height="80" as="geometry" />
        </mxCell>
        <mxCell id="htqSi0T2ii6djHguxnY--4" value="" style="endArrow=open;endFill=1;endSize=12;html=1;rounded=0;exitX=0;exitY=0.5;exitDx=0;exitDy=0;entryX=0.5;entryY=0;entryDx=0;entryDy=0;" edge="1" parent="1" source="htqSi0T2ii6djHguxnY--2" target="htqSi0T2ii6djHguxnY--1">
          <mxGeometry width="160" relative="1" as="geometry">
            <mxPoint x="170" y="320" as="sourcePoint" />
            <mxPoint x="330" y="320" as="targetPoint" />
            <Array as="points">
              <mxPoint x="340" y="225" />
            </Array>
          </mxGeometry>
        </mxCell>
        <mxCell id="htqSi0T2ii6djHguxnY--5" value="Train Source" style="edgeLabel;html=1;align=center;verticalAlign=middle;resizable=0;points=[];" vertex="1" connectable="0" parent="htqSi0T2ii6djHguxnY--4">
          <mxGeometry x="0.2225" relative="1" as="geometry">
            <mxPoint y="78" as="offset" />
          </mxGeometry>
        </mxCell>
        <mxCell id="htqSi0T2ii6djHguxnY--8" value="Slack Bot(Answer Support Questions)" style="shape=image;verticalLabelPosition=bottom;labelBackgroundColor=default;verticalAlign=top;aspect=fixed;imageAspect=0;image=data:image/png,iVBORw0KGgoAAAANSUhEUgAAAOEAAADhCAMAAAAJbSJIAAAA8FBMVEX///8utn02xfDssi7gHlrfAE/rrhgjwu8YsnX86/Ds+PPC6vnssyzzvsnhHFz448HA5dLs+f399+tCyfHtuDo+vIjiLmfeAEvrryHfC1P3/f4TsXTl9/3x+vb+9vnfElX23KnZ8/x31fRk0POa2Lzi9Oz74un88+L//v/447r+/Pbuu0uy5/mg3/a86vmw4Mp9zqlVwZLP7N+Q1LX11prvv1/yzH/ztcXlTHj52OHulKvshKDwo7fqcpLyq773zdn67dHxxm3336+T3PZrx52p3cVzy6TlVnvjPWznZYfrf5vyy3zsjKPvwWX00pDoa40bH+58AAAKrklEQVR4nO2caVvaTBSGA5gALVBkkbAZQJEqLhU3tFawYhVr7f//N28iWjLJLCeTTBJ85/nUD56L3D1n9mdGUaSkpKSkpKSkpP6PWu/uHxwc7B92Gx6C2v3i/fb2/dGoLey7AlL3biv9ruTWfgsU1L+fJZqZVzWb1ZOR4G/0o0MTL2lTOtnrMoP6vxKZhE2ZzHExhG/lUbeM4C0Y0z16sba/ZRC+BWQ1lnm8c/MtGD9TgkYYPkvNk9C+G6rGFh7QYjwgRm3j+aw0HnvpqELQOqZCl4h3hKhvRECrUmPVrTZogETEkyYZ0EKMUxbJJfqGuI8JuqcCWoUaOgdRBwxAE9E9aowoJbpQczsCFqxaTMBkcssVdcwCNLPYj4AGpy02oLtOjxg1+qpZJDwudQEpTCbLjigAn5nEeIz8PQhgMn2IBBWZrTA+SVwHpdDZEgGt0FLzU0RUdu0DCZP2hUYflsJE5j4yrqUg/YyrTIFFGo8yhaYw3bMF0eZraBIj4/onyGC4kL0hApthLIZE2FhhqbycZ7arYMLox4vPknBJuP4v6BMUMJGJfkcDTphcUUJ4O5SEcSVsfHhCpfzhCdkL/FUnhDfEVSWEl+nKEoKXTytL2IAmcWUJlUNgEleXkLkhvPqEjQ+fQ+CIscqEsBXGShMq3Q9PqLToB2wfgNA65mYwrjyh0urRGVef0GQ8KKfJlB+B0BwaW/t3va0yVh+DECZJKAnjL0koCeMvSSgJ46/4ELa6n3lFNbIHRdgfFYvFEe9B+Pr+0pTOpfId0eQdBOFo+zjzruN7776bLmMlBJEJeYDPpG/CxlG1abdzZJozb8fhLeD+IBsyibVA+yUsVjH292MP1Qo/TgIw2hZNARE2Zng3TgbqR6WY0vkYD10/4YtwlCDZjYD2d4ZnmwfR5YH2Q0jzFoPs78EDYhB9ENLN0xDEgEv0DdFxq4SfsM/6e6b9nXDzxbfQ7oafkGmmyjBu23jwjngSYkz0QXjC9jQ26QMj3FjhFRGpU17CPsT+Tq1T6FknhxAnOy/hL4gtlTqVhfp9OYQkkZMQ6J2mJFFUK3yVvSVyEpKvuqEx5OmbqI50IVt3ykfYALpSKd2pwCJFy5SPENTPWCKWKfTmBCeh7YoeH+ER2P5OmtgIbYaIk52PEDAYLkQcEsHmJj7ZfN58hDNw0BGBMMhloQhC+BUG0k0bwYS+T0jhBn/SUjg8wnZEhOG1Q777FvAgUpUKnJVa8n0rCE5ImpkKHi3s0zZ4t2gb2sCETdK0DWjA4xTytAJwhplIVG1BYMIEcUNK7KzNvgPOvqq+EDLFBBOSLy0K7WrQq87Ab0VmJ1BCysXTlkBAx8sR0BmYPQacQ8ohRk9cEtPoe0OwdQI6sEEXT7/IgAJ7U8dWFHBDIoEsEqCE1PMLYUlMO5+MguxIOBoUjDDzjQbo5Z6WN0D3ERRgwKiiEUBCxq63hwuTXgDdD3+Y8xoWovO5ARAh+1qtmOk35oSNOTl1zb0ghJATNhHbUfh32+hnEE3XqAYghL2gFTRiukx6mK6POcr9963udTqbEPpE2H6wgFu4El2oTTjNTWQSmObEPpUh7V641A3uiC1NecvM0jb2wbbmDDctYRA2vRzkm2kMhDGd7rGeTuz/ajoZm1X8+o5KmEmAE/gm6w1Ef5SWowbyNGT/pLpMpPmvGWn9SiTMcL612Dq0LOmceOWt3gH7Vch3jbZnx+b3V6uzkyJ52ownrFaPvxX53wdpNNb55P01uXb7U5se9QkrRpCUlJSUlJSUlKJsZvGiB5lRm1+9/tReiU97e9x0Oxc/Hh43CjhtEIOy+afXoI3x/GqyCf2p6entsJLK8ShVGZ6d7w44+C7GdbVurGFlkAjzc+M9yDDqauFpB/BLg5eUpuu5FB+hFadr+nDXI99NQSXQvQpPmN+oOYLqtTmLcXCr6Sn/ymm5nx74Lsc1Ch6BMDvH/acY9SvqT53qQfC9ShuCa/XGoOWPQJgv1PF/q47J/VLpTAuKz5Sud2CA3xkJxBLekIOMAqlSB5XAEviqnPYCAXxiA7oJr2lBhoFHHFjdS7DSztmAVyob0EV4QQ8yCrhCLVUCBzQRT1mAeQigkzDLSrvxgPmps2BL9B1xSgfcJHQXdMJHVs+0prp71NMgOxk7In2O84OH8BqQ97qzKQ4EAab03zTAS1CNOgg3C4CI+l/HT90KqVFLGm1Y/MssNwwhqG9aq6FJFJZCehKzQECE8CskhWYSn5CfOheWQnOaWiISQhqUi3ACGD8tFZD1lDA+U1qHSDjnyeF3WOe0pk5sQVNxRWqW6S0JcBMKiBBuAGOQKfipuCK1ypQ0YFwC6w0h3IRWtjG3/ZS4ntQSsTdlzL3whNABZs0Y2xriUMCEzUZIWg5fA1sUQjiB/7csNzX2KiIBU8RVFBchbCJryTb9LgkFJBNefRhC0gIDnENj7JMwqiq94ekW+QiHQgk10qYUdHayVn/2Saj8ETtaTAmEWejHqjd+CQVOSy1C0sT06xg4qVFt6wQ+wi8iZ225IQFQUZ5hXY3xaNuu5yMsBb8JtZRO3nEDzk+QGSYfodCGSFsCw8oU2ZHgJBRYppQiBc5MDWRDgpNQETciEmelr2LvmqH9DD+hsCRSUwhaQKnPSAQvobAFFGvD9Jn1wcYjerrLTVgS05uyjy4eGCOG8wyCm1BMnepnLEBl85GKWJ84/p6fUPkZPKI+BJzqUxHVvPPPfRAqHS3gSgUBmogPpI+uG84M+iNUdoNF1M6gvowrrEXBUOcYc4UvQqU0DK5SdeLCF6OdB9eZvKFuXOD+1B+hWampYBh17cyb5WQyr9kgjXrt8QbvjvFLqOx1Kr7dGLqm3U498VnK3swNdaH649Ul6c98E5qavlQ0P9LPOuSjCrp2Jvl8fnJJc3AFQWhqbzr9wqkpjyHKgwIijLEkoSSMvyShJIy/JKEkjL/4zg8rWA3/vPwc8FvvBYmPMIdd+eZ0c5EwfBE8z/QqzjNgytpe129jxRg8obXcA7mZQ5IIQk++e+ESQ5jSc9PomFAJIjTT+CVCKruEETIPIMKSOMJULh5Do0BC/U+EXEsJJGScdYYlkYSpShzqVCgh0dwUpoQSMk6sw5FQwliMGGIJvRwniZJYwjiUqVjClBYh2ptEE0a/xhBNOI0O7U1B7mLgCKNfYYjO4SoRbvA42WNACL9RYvPdwp3sMWiHO2CDv/2289kK9aUK9JIGcsUS6mTP6ZFxLfUAtb/b7Ti7QBNNLBbB0IuniHd6AMwh5TpoeGI+N7CQ/SaRAm6IxJsToQp2t1ZFPWOwMiXfdw1VsPGi4IiCbdRMowByC9LX1G4cQRD7bCz6GUs77AHD0QotAR7+0GMwGC7EflXBcDv/2K/TsF9iCU8s+7urRi2x6hRgSg9PDPt77Ts26oWKCPRsh6Us1f7+RIg6pyDGDJBmf8e9vvMu8is8cFN6eHp2Pke3UN11Q8OuKd4ADXy0K2xdPrqfpDPUH/THE/fONVefmtOG03A+2bMuxshTi4Zq/CX6w/9p8Fu3Q+Z0zfMbiGHq8nms1tS6KbVmzK8hD0MqSqlzm9M0XbfcNPGz07j0NTu5ub66vr64BL/taWpvsNvpnHZ+TmOxlpCSkpKSkpKSkgpd/wHsHJ6pz1xr8gAAAABJRU5ErkJggg==;" vertex="1" parent="1">
          <mxGeometry x="290" y="650" width="100" height="100" as="geometry" />
        </mxCell>
        <mxCell id="htqSi0T2ii6djHguxnY--9" value="" style="endArrow=open;endFill=1;endSize=12;html=1;rounded=0;exitX=0.5;exitY=0;exitDx=0;exitDy=0;entryX=0.5;entryY=1;entryDx=0;entryDy=0;" edge="1" parent="1" source="htqSi0T2ii6djHguxnY--8" target="htqSi0T2ii6djHguxnY--1">
          <mxGeometry width="160" relative="1" as="geometry">
            <mxPoint x="110" y="650" as="sourcePoint" />
            <mxPoint x="270" y="650" as="targetPoint" />
          </mxGeometry>
        </mxCell>
        <mxCell id="htqSi0T2ii6djHguxnY--10" value="Github Check" style="shape=image;verticalLabelPosition=bottom;labelBackgroundColor=default;verticalAlign=top;aspect=fixed;imageAspect=0;image=data:image/png,iVBORw0KGgoAAAANSUhEUgAAAOEAAADhCAMAAAAJbSJIAAAAh1BMVEX///8iIiL8/PwgICAkJCQbGxsAAAAYGBgWFhYaGhr5+fkTExMRERENDQ329vbr6+vw8PDKysopKSmysrLk5OSoqKhFRUVqampYWFg9PT2/v7+GhoYxMTG5ubnR0dFNTU1+fn6SkpLd3d2goKA1NTV7e3uQkJBycnJUVFRmZmZeXl6kpKRAQECoHFhfAAATEklEQVR4nO1diZKiOhSFLOyruC+guLbt/3/fyw3SbQuSRAHnVXlqamaqWyEny91yc6NpH3zwwQcffPDBBx988MEHH3zwwQd1QAhp1z/FD5xgmM6T7eJ4zmbLwXK5nF2mk/VmtIrzMLj/bv/tVQfSftgFYbra7E+7AbZ837Nsm2IMfyg1PfYDOliOJ4fRfBgh/j302yv/NorxC/LkMBkvbUaMYl1nf3Siw1+k+B/7gzG2Tc8is/PiO41ueuYfB7Qxmh+mA+rZNuZMClaE/1OwLP/HmVLbd8l4nwzf3XQxigEI50dqeDbG5DpgxYjpv6x+xvLmf9QyjGybX5/zLw5msYhQuJrovon1Z0Aszxtv06B42D8HaFQ0X19cC7Np+RRDnWBC/eXXaPhPSlWkDb+n1KJ/JuAzHLFlzhbpv0dQCxcDz+Yr7wV+etE/1LK+5u8mVKIQ8Cg/Gmz4nudWgWlc5sE/IW74ekn3uqXfC8tXQd1TEv0DMsdh47cemM/KlgbAZJ2u/oFxDA8DJj1fEC6PGRJi0q/0Tbx+dHIy8PW252dJkXHEprGIft7ZKxzksBWSng2m/J7T75Issb8cvcMGYCPoaOFmaRL8inqQoahTPlURW/K9MmRdGp8K/d7hEBYPx/bgO+p7krIx3Pomdxy6HMJSRGPja9gjRQcGMJ8a3RGrgUUSPnP6oOnAi5KdO+hydlZAqL2OYPH3AUeLDrbdpXippaj757wvlyOc+ExFDPrkx1WSO5v3sxjzi4c7UvIPUYQLqL2FBnTJElb6XMcdWKFSwLq/CDpmqKEEd2vFNADMOP8YdjtTnS2mb+LHKRLsTboNyW0sCDS8aZIyfuztXhaJ2/kUwJtfGJ2aMFI0dXfJJqrTwVR1tGBhvBSGaYkhcbO8fXoMKDjQt48gs23YVHVPeSfiZkNxNXTdP0WmM7A7bVnccH9+62LYenifJP3hCKM4Re3qRaZmE/ttMrQKZqROgjaNVLBkaMfOvCKIsWgzDIe0dEaf3o3oADCdrG2bjkY4tf6hOcqDG0yothT4dxzmdk7cmtewMYVh5cKnE/aYuzAPH41J3k4IjlkPG6uWA8Qzi82ULnQILjfEyYP1gek4aMPrZ70U+48GiegU0yvHtsEVn45tZurXPR1+6K+dFgQqQsMdfTBIAzoYj2cD1/doBxSxbVh4Nx6z19cNIswgP3lNnvIvI4ctQlwbFSV0DGY+yueHseHTIrD4KlXuP7C54frkmKQ83+bg1Y0iTF68TK+5H0+PH9gy5oO2YOIefj463E6xxZz/l00eLr8sb7aIf7KJ4sFDRWWdg5djjOnuUViN4EH82xFaFK9nLn2RH58Dnv6VhNqvVRZN6cN+szc8vvk0PfbNs/lw4uEs/GHISebbmfuy2WqTYzF86CookXaoU1bXNuD8xbSGkf+4Ld6i7AhUTpVwa/kvcbSNScqf6Pw0HEzGB59m69Mev7QMtaHxuL3Eq5Nk0YIJ+J9R55YQT/rClNrUtEzTci3bsinFpZX0k1ak69SfphWfAWnhrmH2G9vnKSLNOXqPH40HFVebu1npEVtcqkJEB/L0LN/Fg+VsfDpPjoDJ1zS77AbE9DyLES2VLaFelgQ16VDI+Xok7aAZy/yFjbcVbphyha64Ywj96awyi6tpbPl0OT7vN6N5modRFAQOIAiiKCwyMifZjnhuIUhsshk+SN7bNHW0vX8+aBNN3Qb1Zk3uhdhV4CCYqhYbueXXdp6HQcP7nSiPR+sL9nzqn9IboXX7VKQlDdKAmeDxU+y4KrT0hjH0DtUvaaV8iE+TJL/9sXa/vtCNDAyZzbB1ytfef5A5b01becSaPjNLuWCcNe4w+dvH31afNkgLHv5GCxsYsrVuJoXwVXwhgtnfyDBp+Lq6nfH4C6wtTWqWEHv33EIMvWav13jsgSJlhojndjz4naY1bceyNhoj9WnDPn/w9cbIhRE/Dncp9yl6PM1gwc6azAimkmbqkX6k5U1ShjNMe0oAYRQbGTJ42yds00ODDvoZw36AtJ2AIb2ayCoYjkV+QsM6bBmocR0CsN0g9h4881voJTTJ0naBkCdqDDiKaohOj32yK56a+0+AvSQSJ+/QWFMTcHPxZr276C1fsNGm4cDuUVM4w8A+N7GEARf7S3ViPIlmu7QA0xihNEH44LBZFXLQS8dJAz/tEct1Bn8kHx9G4NpL7MPgfvJ3mcU6tUVDyFoz02Tjw8x+cmYyIaWeRI2j5VI5dE02VuWR4pUNQ2h9Nbl+LeLbk4nC/oSNhGBOekNw6xeEjoe9MHQWlswY4ksk3ZwoE817/kSadJHzUQGSsK+K9sgbWXFTeOb6OKIb3/3oQ8jX9Wu3Lv6CMAUt256NUP0wt9M99pRaDipgbkisRHnzOzqLJynBs3604TVesGiKiZVNGsh6O3lTALYcQrzSejLaEGzShifhBh4m7uPI0V8kDfHXkqG/R05PpzyK8MZc2CiCrYlkg9Zi9UN33eRdPQRCe1dgZjHTdCkXzAgysWz2N32fQtJyEPBNEpVcXSgx8oF4yi+H/R7SAWmz90hzdjLR/W+pp80todHtH3iORo9gb8sNgVIkun2WeBRi2rCZIFsORtj7YTnYrLUFXY91X+I5SDvRxnwDAnsyPVCqYi7WiYYwKxMGRuRXEGyueuBTRXShjZIGgt8r4dyCbV+RVNZ3fZkzd9g3DyLkEG0kGHITsKmrsPmeScpMkcYxhFG0jhJdvxWZ3cQbdU+mFrko9K3TsUTqyVrg/SoYuG2DuQQCWYOJ0KpBSORYgGvfB52atrHeFwZxRQcVEApE2zy6ee7q0IoQW2F0xRX5+cxNEfr31vptZQ5WQovZHwltkdwSdtOmHzo1SEV7mronblwsDC+77xKlmjYUBk49caxmJWJIrN521SoIherCFacPNaXqFbB7Oo1bg1AYVpTYLtoKZyl+X/mfSOic02mzoEfNKWQFwTcyFIcf7JNQlQk3slRCy20jEM9SUcwUaQvhLLXfOEuFDGFTsxEQehUxNMU+WFeIhLt+EKhuhARDnifXD6EKImGsWoahcB1a79L4zDtfivRhKwylY+ftIxeHqkUMNYl1WJM52w+Qlgp3/UQM2fpaiF38d/kWSJsLN8XoWDiGB7HVNulp+/4eSBsJPWAqrrggttqo2GzoBkhscMk07lvoW9DZu8rhor3QebXFGXyJSNIUR+LeAonNaXMiZLgSdpOunMvZFsKLMIph7YV7YrGQ4e2xw36RinOjJHz8oXA3Gdtfb1IXI3EJZl+ciRYIY20E794kTNeucGez9jzdLZDmiOY6wbCZjF45uPkE4GXOWJz8ZYnj8ajpJBxnWCQlvqH6LaQoisbQEmZQiE1vOIp8efFk6nMYCfPZdTwQ1gNB2rfQMCWw1drzLIW3ZeJq0zQTtgv2D5sP1UO6gP/CydTnwF7XdICtbJm1FyR7oyLzXyLFO+i5tj8S5xPC1jVXFk0N40lyVKKsrN9/VFgYo4Gta0PULs7/bIlrP0iYf21DeCIBiiAZkWjrCX679SWKWzx59vZ5BFORsQVCHksJ+XlzPk0B9wgT2ukj9QsmlgNZCsJex9ZR6oniLSzeYfMyL7Jz8DPJJ1MiS1jysJkzlckbN6eOwjmj18A68tsWbo5CWp+k53oQ2w6QfvTdFz8IlIrzJaFgzUxS/kERVuHjsO6/Uq1BAWDkn8V+OWPoyeQLAfLmc/glzKyfKuIBQhu54uGmbDQ+mEj0GDxw3YtSRNpKqjm6QgBJnLYCIDrtJysjljpnphNbNtEHSSR1XDtNelq8guHMkipoSCQyTQogLThJ3oqDeTEDpxt/GIxkSH7GotTgsjHMzpJrBrrmJ8o8FlsbXveuA4bFXXpsipoSZ54AdiZ9RQQkjUsyZJbgOuxI86PiigKq63IUJbJnyyczLXeSLUuGdYsX9e1iDKE2M6b4Ud3ECsNqiamHj0ZaUs38J7ymHimu+/v9KcamPyoYvlL87ubtv/+kFx9KTUmJGR1nSh0dVKwk8ntbwH1NF+yf+XF/4Pd6LcqiNBp7zHBhyhz0vLaOMKtbKXa0rvHG4IrNOs8KE3OwT1EpG14keP0r3F7klETZiGWktlbiSiSD2Hg5viyxb9+T5FW9dnDfXSvXbMIThtuxq1LXFxNvoVJTgSG4DwwT6xhHjhOm3xejYtQBRxfz++7aEDnpfuApXkOEybVSmDwS++/j7ezHCE2PvlVT5BKbBikrVpbvEp1R5L90tJsaZk6+nRnq1RdtWbfi983hvcIYlCWFhnEUZ15dBxPq0tkiya+nxq/rUhAZulm9Ub5aZLrYO60C0gmVZ8997Bt/XbMc9v5eC9f1YROCqWXvpotRPCzSGSQnjhMM49HivMOu3VQc+SHoWf4s/hWoko9L6LnYv0/PCybN6/wP0M1wlyj1LLrM9ptRnItjXyhfjQ7HbEktjy+Mp0pnesrb0tD1W+Ov6sMWjrXfoniJAQX97igSLh5ABmLqer5xkIjuxYYBFSJvXqY0hlCW187Ug2Jg2A/ui+Zi/zgs6K1nc23riY50mnKVKuYDcYWDx4BGGuoHy7lmGVVULvFOKf/d3hiH2tpuVFjEOocyb0XaRtp2qXsNmy6Zoi4EwKgH2T0FJkiWQFEbfn1FVXH7F7LnoxCKZAJND1/DGhWrEyxuaE4qfUt4rXf4AOi9eaNY8NZyljhcNCguU/EYxJ08bS4GE7N6FtG6XENsQaCtvXqxwAUOlk2dYs07cyfpKYL4hQwmBAksFYrEO0a80mw2jsPZgz0O9jWpw45Xhnxb9lm4hxfqCKNFdR+KTftvztD3p0Fcf6QWBsSQXRx8hj1f6RwOCz7NkKn9ZfVgKoF6A7Ana8xCbevXFXaD9lqatMvNa5c8W6/eeDHtnE2fqivMT6uzqZU614zb+4FkOso+KuRrIJ5s9gxFEDMv+jP7Stl+RtG4KeG3sao6A3Y11E60Q476EwyJvVQvenn/6vuaUUz/EPscFE7DcJFEI+YbVwZap2oCzslk9gerPYmTV4NDTCneSXGwO7E5L/z5rWFuUXqu1Iymvujsyj3EybF1kEi2FFNE63t1zFadeeS+LYoNi4mdYHUxvNKdYv6Tb1xGqnnEMoUDK6CX19OVGQ9mvFVFSVlxfjSbcM8sP2S26zGYdHb8hvcqzp1vQb2RCuDjXtzGLSzMgdOr2xjWNYsWBU6AUJrEWhCmq9VqHg8dxJz1QPXNibjY5j1FbGzbuCEYNkcSfK/0iH2dHzwIMRxbdAOvcoZQYhMl2e4o5VbcMlS8/AND9YpWCPKHHLx7mwPKv11/r6Foahg4gDr8+nKkoXBm+ANVW3GlaNQQAodHWgqzMz/q6P+Vlswq8686kefCjRbAKDY8Ay7UGO0y5RN8KgyhmhKxdmlTFXBVksNTpdIWHVSvWN5O9uUPVbt2Jahb8pcihHPaPCQIlQt3d14Ecx6ym3zcK6sA/cQHVcdQgSGEZvxWL5ZDjqPFf21wHv855fcfLHJDnCeSiRTH0F+0uvHMR2R1u41QXIZozipxinLpK79daQx1f9/+VfKgM+6vWMPYWIRcoRTBbR5oLK4ZUY7uiYt6lOzArD92UksNjeB+n1+G/Iofb5xcDdCSUkmzG4YY0gr9YycHPti4jKzbwGZxixE1s20eaHcMNeWEMEmGPMt80k25OGAwwn/8JBDamFCfnA/z8JcSCtNkoXpYWJYhM0a/HPUOlG8HV/w3E5XwK+xMzzDIeLJeLBb7rws2DN9QrQcmYbUV1xEbqvtoSkDafEmxXuuNY2q6rudaNnejJLN1fyHBkPm7BPuLTpPpeAaPLXMFYCcMmSHFM5Q64VYA9GKeuRKaS7ocbIlqfL0GmIycToTMD/izw6+G6+bK7u6EoTuYt6/oq4CS7b7oskqiXB6zmSF/mz/tqbQvZJsNBLkurTNk7qALGXR9MOTTJD0Lzv6bqidpRQWo7eW2FXdXBsxzcLRQUF1C+axw0hhNxGbGr7bsp7QvKlyjue4WdnDt1WWtMYSHY2osHNWEoBcBLwuP9NFVyLpczeJb1M9Swi+t9sZPbPK+CvBxnSTjBajrONJzG2MIEhtbg8OwDyXxF6jgODxQuz7BR5nhqP6WDmbXn2NeWb/nMURlbnc6rVf/dKrKsC6XjZmhYMX83sb7FqzG13zMP2EcW5nhzSzlfjZbgtSii7fVSi3Bejb6HtsQZLlZkKxxqneDjty/nidbgtZgXw1Y9g4u4obbMdwff2PIEXpSZvjXtSbeYB+XGWZvRbFAwtHMoLdZbuZZkeEfWYqxZ+3zMj/+/SjCh6uT4fFsfm6Ue2vFh8x5CKgw6KkxOJQbrG+fpTdA6X7n0+saUi2QiaJpcbkDs7DxNJE+/dIjIECK8tHXwDMp9fSDogWJtHjmY/ZNnC1i598auhLFggzS7XmcTRLVgmewNbLOxqf9KrxuDXTTyheAyp022LZQP3mBisPvV/HU1yU9H3zwwQcffPDBBx988MEHH3zwwf8H/wG5rvsLbdwKRQAAAABJRU5ErkJggg==;" vertex="1" parent="1">
          <mxGeometry x="877" y="460" width="100" height="100" as="geometry" />
        </mxCell>
        <mxCell id="htqSi0T2ii6djHguxnY--11" value="is the violation definition exists in database?" style="rhombus;whiteSpace=wrap;html=1;" vertex="1" parent="1">
          <mxGeometry x="710" y="470" width="80" height="80" as="geometry" />
        </mxCell>
        <mxCell id="htqSi0T2ii6djHguxnY--12" value="" style="endArrow=open;endFill=1;endSize=12;html=1;rounded=0;exitX=0;exitY=0.5;exitDx=0;exitDy=0;entryX=1;entryY=0.5;entryDx=0;entryDy=0;" edge="1" parent="1" source="htqSi0T2ii6djHguxnY--10" target="htqSi0T2ii6djHguxnY--11">
          <mxGeometry width="160" relative="1" as="geometry">
            <mxPoint x="720" y="650" as="sourcePoint" />
            <mxPoint x="880" y="650" as="targetPoint" />
          </mxGeometry>
        </mxCell>
        <mxCell id="htqSi0T2ii6djHguxnY--13" value="" style="endArrow=open;endFill=1;endSize=12;html=1;rounded=0;exitX=0.5;exitY=0;exitDx=0;exitDy=0;entryX=1;entryY=0.5;entryDx=0;entryDy=0;" edge="1" parent="1" source="htqSi0T2ii6djHguxnY--11" target="htqSi0T2ii6djHguxnY--3">
          <mxGeometry width="160" relative="1" as="geometry">
            <mxPoint x="730" y="430" as="sourcePoint" />
            <mxPoint x="890" y="430" as="targetPoint" />
            <Array as="points">
              <mxPoint x="750" y="350" />
            </Array>
          </mxGeometry>
        </mxCell>
        <mxCell id="htqSi0T2ii6djHguxnY--14" value="Yes" style="edgeLabel;html=1;align=center;verticalAlign=middle;resizable=0;points=[];" vertex="1" connectable="0" parent="htqSi0T2ii6djHguxnY--13">
          <mxGeometry x="-0.4104" y="1" relative="1" as="geometry">
            <mxPoint as="offset" />
          </mxGeometry>
        </mxCell>
        <mxCell id="htqSi0T2ii6djHguxnY--17" value="" style="endArrow=open;endFill=1;endSize=12;html=1;rounded=0;exitX=0;exitY=0.5;exitDx=0;exitDy=0;" edge="1" parent="1" source="htqSi0T2ii6djHguxnY--11" target="htqSi0T2ii6djHguxnY--1">
          <mxGeometry width="160" relative="1" as="geometry">
            <mxPoint x="450" y="470" as="sourcePoint" />
            <mxPoint x="570" y="500" as="targetPoint" />
          </mxGeometry>
        </mxCell>
        <mxCell id="htqSi0T2ii6djHguxnY--23" value="No" style="edgeLabel;html=1;align=center;verticalAlign=middle;resizable=0;points=[];" vertex="1" connectable="0" parent="htqSi0T2ii6djHguxnY--17">
          <mxGeometry x="-0.1512" y="2" relative="1" as="geometry">
            <mxPoint as="offset" />
          </mxGeometry>
        </mxCell>
        <mxCell id="htqSi0T2ii6djHguxnY--18" value="" style="verticalAlign=bottom;html=1;endArrow=none;edgeStyle=orthogonalEdgeStyle;rounded=0;entryX=0;entryY=0.5;entryDx=0;entryDy=0;" edge="1" parent="1" target="htqSi0T2ii6djHguxnY--3">
          <mxGeometry relative="1" as="geometry">
            <mxPoint x="340" y="460" as="sourcePoint" />
            <mxPoint x="440" y="360" as="targetPoint" />
            <Array as="points">
              <mxPoint x="340" y="350" />
            </Array>
          </mxGeometry>
        </mxCell>
        <mxCell id="htqSi0T2ii6djHguxnY--19" value="" style="resizable=0;html=1;align=left;verticalAlign=top;labelBackgroundColor=none;fontSize=10" connectable="0" vertex="1" parent="htqSi0T2ii6djHguxnY--18">
          <mxGeometry x="-1" relative="1" as="geometry" />
        </mxCell>
        <mxCell id="htqSi0T2ii6djHguxnY--20" value="" style="resizable=0;html=1;align=left;verticalAlign=bottom;labelBackgroundColor=none;fontSize=10" connectable="0" vertex="1" parent="htqSi0T2ii6djHguxnY--18">
          <mxGeometry x="-1" relative="1" as="geometry" />
        </mxCell>
        <mxCell id="htqSi0T2ii6djHguxnY--21" value="" style="resizable=0;html=1;align=right;verticalAlign=top;labelBackgroundColor=none;fontSize=10" connectable="0" vertex="1" parent="htqSi0T2ii6djHguxnY--18">
          <mxGeometry x="0.9" relative="1" as="geometry" />
        </mxCell>
        <mxCell id="htqSi0T2ii6djHguxnY--22" value="" style="resizable=0;html=1;align=right;verticalAlign=bottom;labelBackgroundColor=none;fontSize=10" connectable="0" vertex="1" parent="htqSi0T2ii6djHguxnY--18">
          <mxGeometry x="0.9" relative="1" as="geometry" />
        </mxCell>
        <mxCell id="htqSi0T2ii6djHguxnY--24" value="1. get result from AI&lt;br&gt;2.save the result to PgSQL db and mark the row as not reviewed&lt;div&gt;3. for each row in PgSQL we need have a flag: &quot;is_reviewed&quot;&lt;/div&gt;" style="text;html=1;align=center;verticalAlign=middle;whiteSpace=wrap;rounded=0;" vertex="1" parent="1">
          <mxGeometry x="460" y="520" width="220" height="80" as="geometry" />
        </mxCell>
      </root>
    </mxGraphModel>
  </diagram>
</mxfile>
